# xmcd
#
# Track frame offsets: 
#        150
#        27045
#        52982
#        76295
#        97497
#        121380
#        145017
#
# Disc length: 2230 seconds
#
# Revision: 3
# Processed by: cddbd v1.5.2PL0 Copyright (c) Steve Scherf et al.
# Submitted via: ExactAudioCopy v0.95b4
#
DISCID=5608b407
DTITLE=Lou Donaldson - The Time Is Right
DYEAR=1959
DGENRE=Jazz
TTITLE0=Lou's Blues
TTITLE1=Be My Love
TTITLE2=Idaho
TTITLE3=The Nearness Of You
TTITLE4=Mack The Knife
TTITLE5=Crosstown Shuffle
TTITLE6=Tangerine
EXTD=YEAR: 1959
EXTT0=
EXTT1=
EXTT2=
EXTT3=
EXTT4=
EXTT5=
EXTT6=
PLAYORDER=
